<?xml version="1.0" encoding="UTF-8"?>
<!-- Generator: visioncortex VTracer 0.6.4 -->
<svg version="1.1" xmlns="http://www.w3.org/2000/svg" width="1024" height="1024">
<path d="M0 0 C337.92 0 675.84 0 1024 0 C1024 337.92 1024 675.84 1024 1024 C686.08 1024 348.16 1024 0 1024 C0 686.08 0 348.16 0 0 Z " fill="none" transform="translate(0,0)"/>
<path d="M0 0 C3.60149504 0.0005205 7.20298673 -0.00062726 10.80448151 -0.00194168 C56.60550891 -0.00791449 102.3665361 0.75854734 148.13358307 2.53080368 C151.46119932 2.65827401 154.789008 2.78026478 158.1168251 2.90235996 C175.90090342 3.55663667 193.67735446 4.31512878 211.45017242 5.22709274 C212.65803783 5.28888371 212.65803783 5.28888371 213.89030457 5.35192299 C234.1685293 6.39583614 254.36074245 7.46499529 274.35642242 11.18803024 C275.55911774 11.40201462 276.76181305 11.61599899 278.00095367 11.83646774 C298.10307508 15.74202276 318.07462247 23.18652369 333.35642242 37.18803024 C334.11052399 37.85060837 334.86462555 38.51318649 335.64157867 39.19584274 C354.87426935 57.07597713 363.48541809 84.15800211 366.62570953 109.47831345 C367.07509614 113.04363215 367.55164392 116.6021531 368.07224274 120.15775681 C370.13187072 134.31970768 371.44134925 148.48039558 372.48142242 162.75053024 C372.56702423 163.90710129 372.65262604 165.06367233 372.74082184 166.25529099 C374.17290956 185.76288335 375.13951054 205.20531223 375.32779694 224.76273727 C375.35761317 227.28891595 375.40242565 229.81448261 375.45066071 232.34037399 C375.95557242 259.54146884 375.03590026 286.59758601 373.54392242 313.75053024 C373.50226078 314.51887695 373.46059914 315.28722366 373.41767502 316.07885361 C372.50372708 332.92021314 371.40789197 349.73324606 369.84470367 366.52787399 C369.72693069 367.800224 369.60915771 369.07257401 369.48781586 370.38348007 C366.66573949 399.52079388 361.20921554 432.32274861 341.35642242 455.18803024 C340.59329742 456.19865524 339.83017242 457.20928024 339.04392242 458.25053024 C313.47456038 486.1984376 270.09292277 491.53974363 234.42771149 493.33549118 C230.37711831 493.50731838 226.32597872 493.65470055 222.27414703 493.79398727 C213.60267644 494.103133 204.95068101 494.60978126 196.29392242 495.18803024 C195.02741852 495.27117477 193.76091461 495.35431931 192.4560318 495.43998337 C185.60129218 495.90458719 185.60129218 495.90458719 178.77571869 496.67260361 C173.98642618 497.27630515 169.20311926 497.51464596 164.38230133 497.71610641 C163.42363977 497.75747066 162.46497822 497.7988349 161.47726631 497.8414526 C150.30224488 498.30222153 139.1248496 498.54833973 127.94235992 498.73881149 C126.74564037 498.75962595 125.54892082 498.78044041 124.31593704 498.8018856 C85.71804141 499.4498127 47.11243456 499.37547075 8.51033378 499.37314141 C1.11738012 499.37344519 -6.27553702 499.3816304 -13.66847992 499.39384079 C-76.184531 499.49462777 -138.64901683 499.19844792 -201.0717392 495.37131882 C-203.84992052 495.20431232 -206.62876519 495.05000867 -209.4076395 494.89503574 C-223.41665966 494.10962913 -237.39424221 493.12188558 -251.35451508 491.70365524 C-253.07564766 491.53018318 -253.07564766 491.53018318 -254.8315506 491.35320663 C-285.56234189 488.06678132 -320.19332766 480.48542523 -341.39357758 456.06303024 C-349.86372242 445.02852962 -356.27955619 432.37328778 -360.64357758 419.18803024 C-360.86497406 418.520457 -361.08637054 417.85288376 -361.31447601 417.16508102 C-366.61140208 400.4537071 -367.75065888 382.80856196 -369.42287445 365.45023727 C-369.69073766 362.7046394 -369.97240428 359.96060882 -370.25832367 357.21683884 C-371.81196046 341.9686722 -372.95247173 326.71380421 -373.71389008 311.40678024 C-373.77903934 310.09898826 -373.77903934 310.09898826 -373.84550476 308.76477623 C-374.78884556 289.33524163 -374.9522331 269.92420026 -374.90431976 250.47489548 C-374.89288452 245.79573522 -374.89975783 241.11680153 -374.91118813 236.43764877 C-374.97719418 204.64913245 -373.68615924 173.10804295 -370.57619476 141.46390915 C-370.26337279 138.25971836 -369.96869689 135.0541654 -369.67482758 131.84818649 C-368.03993204 114.5653446 -366.24041018 96.70381434 -360.39357758 80.25053024 C-360.09765717 79.39483444 -359.80173676 78.53913864 -359.49684906 77.65751266 C-355.16538273 65.5698837 -349.32342237 54.74053448 -340.64357758 45.18803024 C-339.83275726 44.28439743 -339.02193695 43.38076462 -338.18654633 42.44974899 C-309.41244406 11.99048701 -264.75041599 9.34348247 -225.45607758 6.68803024 C-224.53914124 6.62488632 -223.6222049 6.5617424 -222.6774826 6.49668503 C-205.24937761 5.29860248 -187.81173425 4.33247702 -170.36200714 3.51168442 C-166.71132154 3.33976793 -163.0618586 3.15827197 -159.41310883 2.94901657 C-141.46412926 1.94089272 -123.48884505 1.5528319 -105.51857758 1.12553024 C-104.59124943 1.1033128 -103.66392128 1.08109535 -102.70849228 1.05820465 C-68.47291175 0.24539052 -34.24465213 -0.00608383 0 0 Z " fill="#fff" transform="translate(511.6435775756836,261.8119697570801)"/>
<path d="M0 0 C5.93819077 2.44711319 11.1962942 5.73996982 16.58203125 9.2109375 C18.70949711 10.56141583 20.83710528 11.91166998 22.96484375 13.26171875 C24.58181152 14.29353271 24.58181152 14.29353271 26.23144531 15.34619141 C31.28657292 18.56246469 36.37241595 21.72907329 41.45703125 24.8984375 C43.45329906 26.14555476 45.44939234 27.39295143 47.4453125 28.640625 C48.9295874 29.5682666 48.9295874 29.5682666 50.44384766 30.51464844 C53.48389084 32.41522964 56.52327177 34.31686592 59.5625 36.21875 C69.01476171 42.13247271 78.47277032 48.03614354 87.95703125 53.8984375 C103.38331695 63.43460668 118.76577407 73.04055538 134.07666016 82.76098633 C138.7022909 85.68781483 143.35480647 88.56655388 148.02734375 91.41796875 C148.59963715 91.7676622 149.17193054 92.11735565 149.76156616 92.47764587 C152.5750595 94.19659191 155.39105238 95.9108878 158.21240234 97.61694336 C179.77623064 110.7714467 179.77623064 110.7714467 182.64453125 116.9609375 C184.36727864 124.24948416 183.97031794 130.31416095 181.015625 137.1953125 C176.83800556 143.10051893 170.52703758 146.79274771 164.39453125 150.3984375 C162.79704832 151.35619271 161.20074728 152.31592128 159.60546875 153.27734375 C158.76854492 153.78152832 157.93162109 154.28571289 157.06933594 154.80517578 C152.51207302 157.58468025 148.01696944 160.46098534 143.51953125 163.3359375 C141.64583584 164.53255601 139.77213794 165.72917061 137.8984375 166.92578125 C136.98465332 167.50956543 136.07086914 168.09334961 135.12939453 168.69482422 C131.08035565 171.27605876 127.01917873 173.8379004 122.95703125 176.3984375 C116.1128103 180.71476236 109.28167173 185.05122281 102.45703125 189.3984375 C93.24657997 195.26481363 84.02004097 201.10516783 74.78369141 206.93066406 C70.8404288 209.41827107 66.89882357 211.90850164 62.95703125 214.3984375 C61.37370565 215.39844974 59.79037232 216.39844975 58.20703125 217.3984375 C57.42328125 217.8934375 56.63953125 218.3884375 55.83203125 218.8984375 C53.45703125 220.3984375 51.08203125 221.8984375 48.70703125 223.3984375 C47.92295898 223.8936792 47.13888672 224.3889209 46.33105469 224.89916992 C44.75111583 225.89694908 43.17103816 226.89450846 41.59082031 227.8918457 C37.57937211 230.42402069 33.57056995 232.96022537 29.56640625 235.50390625 C22.08482494 240.25294081 14.59162548 244.98217165 7.01953125 249.5859375 C6.41077148 249.96065186 5.80201172 250.33536621 5.17480469 250.72143555 C-0.66112813 254.23712784 -5.78001954 255.20999141 -12.54296875 254.3984375 C-18.21077674 251.83188294 -20.40951049 248.00013304 -22.54296875 242.3984375 C-23.76238317 238.14768478 -23.68793191 233.98522425 -23.68341064 229.59469604 C-23.68638177 228.69586893 -23.68935289 227.79704182 -23.69241405 226.87097752 C-23.70110055 223.85261495 -23.70260927 220.83429205 -23.70410156 217.81591797 C-23.70872984 215.65424006 -23.71375451 213.49256298 -23.71914673 211.33088684 C-23.7322734 205.45254087 -23.73871643 199.57420633 -23.74315739 193.69584799 C-23.74608819 190.02259384 -23.75019306 186.34934282 -23.75466156 182.67609024 C-23.76833832 171.18150976 -23.77800363 159.68693642 -23.78186345 148.19234836 C-23.78634224 134.92742462 -23.80388116 121.66260402 -23.83286405 108.39771163 C-23.85449171 98.14278035 -23.86456834 87.88787805 -23.86590457 77.6329242 C-23.86695198 71.5091678 -23.87284615 65.38550834 -23.89072418 59.26177597 C-23.9072231 53.49815245 -23.90935142 47.73469854 -23.90058517 41.9710598 C-23.89981573 39.859577 -23.90414522 37.74808502 -23.91404343 35.63662529 C-23.92679757 32.7455768 -23.92086717 29.85512587 -23.91046143 26.96408081 C-23.91851783 26.13603813 -23.92657423 25.30799545 -23.93487477 24.45486057 C-23.86490007 16.09513794 -21.96952732 7.94222871 -16.54296875 1.3984375 C-11.23323102 -2.90675525 -6.09981659 -2.37218574 0 0 Z " fill="#fff" transform="translate(299.54296875,385.6015625)"/>
<path d="M0 0 C0.85400391 -0.00322266 1.70800781 -0.00644531 2.58789062 -0.00976562 C8.91105937 0.04487291 8.91105937 0.04487291 12.3125 2.3125 C11.63834163 7.46349128 10.68966048 12.48899857 9.5625 17.55859375 C9.38862259 18.3499472 9.21474518 19.14130066 9.03559875 19.95663452 C8.46383755 22.55500498 7.8882413 25.15250879 7.3125 27.75 C6.90896096 29.57964094 6.50556155 31.40931267 6.10229492 33.23901367 C3.12582341 46.72388825 0.09343344 60.19600996 -2.94894409 73.6661377 C-6.02125502 87.27445804 -8.98847654 100.90229194 -11.88671875 114.54882812 C-13.49721544 122.11816258 -15.12007571 129.68482634 -16.75 137.25 C-16.92380188 138.05679199 -17.09760376 138.86358398 -17.27667236 139.69482422 C-19.3008568 149.07656331 -21.3796208 158.43504184 -23.68164062 167.75317383 C-25.19450027 173.98623046 -26.53361953 180.25084792 -27.8515625 186.52734375 C-28.04724319 187.45578598 -28.24292389 188.38422821 -28.4445343 189.34080505 C-29.43681843 194.05220731 -30.42040661 198.76515562 -31.39038086 203.48120117 C-36.32952139 227.21871407 -36.32952139 227.21871407 -40.63989258 231.04614258 C-45.42619067 234.00626279 -51.47145564 233.49499446 -56.9375 233.5 C-57.65679688 233.51224609 -58.37609375 233.52449219 -59.1171875 233.53710938 C-60.97545986 233.54232924 -62.83327197 233.43514513 -64.6875 233.3125 C-66.6875 231.3125 -66.6875 231.3125 -66.95678711 228.39648438 C-66.79655658 223.14409899 -65.52446838 218.07729324 -64.37890625 212.96875 C-64.13702576 211.86391769 -63.89514526 210.75908539 -63.64593506 209.62077332 C-62.85459071 206.01636307 -62.05251482 202.41443813 -61.25 198.8125 C-60.6970707 196.30584225 -60.14458395 193.79908685 -59.5925293 191.29223633 C-56.30364123 176.39707857 -52.92351326 161.52437477 -49.45608521 146.66986084 C-45.95335202 131.65668677 -42.70871601 116.59385991 -39.50274658 101.51490784 C-39.31750427 100.64373825 -39.13226196 99.77256866 -38.94140625 98.875 C-38.66330109 97.56685585 -38.66330109 97.56685585 -38.37957764 96.23228455 C-35.43722149 82.41455686 -32.38891372 68.61994977 -29.33805847 54.82585144 C-28.21684214 49.74580086 -27.11583621 44.66181838 -26.03025818 39.57403564 C-25.32055365 36.25291603 -24.60272244 32.93358002 -23.88381958 29.61444092 C-23.54961769 28.0614334 -23.21915547 26.50761549 -22.89279175 24.95294189 C-18.84250478 5.67525838 -18.84250478 5.67525838 -13.04296875 1.33203125 C-8.61047641 -0.01474465 -4.60497225 -0.08808287 0 0 Z " fill="#fff" transform="translate(696.6875,394.6875)"/>
<path d="M0 0 C2.31201172 1.50732422 2.31201172 1.50732422 4.5546875 3.6796875 C5.41545898 4.50307617 6.27623047 5.32646484 7.16308594 6.17480469 C8.11026734 7.11498413 9.05583623 8.05679017 10 9 C11.03674579 10.02249954 12.07353095 11.04495915 13.11035156 12.06738281 C16.4703022 15.39849593 19.79956064 18.7594836 23.125 22.125 C31.26422563 30.49949103 31.26422563 30.49949103 39.87109375 38.37890625 C45.88543069 43.50117959 51.36550892 49.21723303 56.9387207 54.80834961 C58.95344771 56.82849057 60.97353385 58.84316383 62.99414062 60.85742188 C64.2763629 62.14030401 65.55827545 63.42349581 66.83984375 64.70703125 C67.44392563 65.3090889 68.04800751 65.91114655 68.6703949 66.53144836 C72.20973549 70.09090159 74.15031093 72.10696187 74.5 77.125 C74.38347356 80.85782263 73.87530253 82.68982385 71.33666992 85.4284668 C70.69676117 86.12024017 70.05685242 86.81201355 69.39755249 87.52474976 C64.02112681 93.07540986 58.58230813 98.56016381 53.11328125 104.01953125 C51.76508746 105.36839973 50.41704206 106.71741653 49.06913757 108.0665741 C46.25759198 110.87958686 43.44426356 113.69080082 40.62963867 116.50073242 C37.02499041 120.09966193 33.42488018 123.70309238 29.82607746 127.3078661 C27.04922545 130.08833148 24.26999637 132.86641101 21.49004173 135.64377403 C20.16125311 136.97189667 18.83320389 138.30075951 17.50591469 139.63038063 C15.6538956 141.48494136 13.79869777 143.33626306 11.94262695 145.18676758 C11.39761032 145.73380844 10.85259369 146.2808493 10.2910614 146.84446716 C3.29005339 153.80666309 3.29005339 153.80666309 -0.9453125 154.44140625 C-4.79698114 153.88483521 -6.1186015 152.64419295 -8.875 149.9375 C-9.72578125 149.1228125 -10.5765625 148.308125 -11.453125 147.46875 C-12.29359375 146.6540625 -13.1340625 145.839375 -14 145 C-15.53255588 143.63553089 -17.07327409 142.28012809 -18.625 140.9375 C-19.27726563 140.36902344 -19.92953125 139.80054688 -20.6015625 139.21484375 C-21.06304688 138.81394531 -21.52453125 138.41304687 -22 138 C-20.3993244 134.02473776 -17.62856444 131.35979696 -14.63232422 128.40527344 C-14.08583221 127.85848938 -13.53934021 127.31170532 -12.97628784 126.74835205 C-11.17378907 124.94724351 -9.36431604 123.15331753 -7.5546875 121.359375 C-6.30157633 120.10999505 -5.04890681 118.86017199 -3.79666138 117.60992432 C-0.50324045 114.32413128 2.79614291 111.0443893 6.09680176 107.76586914 C9.46528994 104.41785747 12.8281076 101.06416093 16.19140625 97.7109375 C22.78873176 91.13504704 29.39236983 84.56553484 36 78 C34.55242895 74.95406114 33.31984428 73.18754024 30.6875 71.0625 C26.87435269 67.83440236 23.32930926 64.41748322 19.8125 60.875 C19.26142578 60.32062256 18.71035156 59.76624512 18.14257812 59.19506836 C15.8494238 56.88377199 13.5610791 54.56773973 11.27246094 52.25195312 C2.78758795 43.66890155 2.78758795 43.66890155 -6.16748047 35.58349609 C-9.5918955 32.62442923 -12.82835109 29.47641073 -16.0625 26.3125 C-16.75021484 25.66216797 -17.43792969 25.01183594 -18.14648438 24.34179688 C-18.79037109 23.70951172 -19.43425781 23.07722656 -20.09765625 22.42578125 C-20.68039307 21.86286377 -21.26312988 21.29994629 -21.86352539 20.7199707 C-23 19 -23 19 -22.85864258 16.98364258 C-21.90123255 14.7718267 -20.88008019 13.52113171 -19.1640625 11.8359375 C-18.59429688 11.27132813 -18.02453125 10.70671875 -17.4375 10.125 C-16.839375 9.5475 -16.24125 8.97 -15.625 8.375 C-15.03460937 7.78976562 -14.44421875 7.20453125 -13.8359375 6.6015625 C-6.36978024 -0.7300694 -6.36978024 -0.7300694 0 0 Z " fill="#fff" transform="translate(748,435)"/>
<path d="M0 0 C3.6159503 2.71914864 6.77617418 5.83440421 10 9 C11.96985388 10.70850693 13.97936367 12.35158615 16 14 C15.61345362 18.9810116 13.07357847 21.47341476 9.65405273 24.80004883 C9.09795319 25.35673248 8.54185364 25.91341614 7.96890259 26.48696899 C6.13312351 28.31996705 4.28359662 30.13839934 2.43359375 31.95703125 C1.15619849 33.22696424 -0.12031501 34.49778474 -1.39598083 35.76945496 C-4.75246046 39.11067743 -8.12077909 42.43971278 -11.49169922 45.76635742 C-14.93072962 49.16443733 -18.35843504 52.57389857 -21.78710938 55.98242188 C-28.51370006 62.66614021 -35.25285197 69.33703919 -42 76 C-41.05280979 77.1127367 -40.10451446 78.22453275 -39.15576172 79.3359375 C-38.36381912 80.2647876 -38.36381912 80.2647876 -37.55587769 81.21240234 C-35.50313966 83.57085875 -33.3391997 85.79305997 -31.125 88 C-30.34382812 88.78375 -29.56265625 89.5675 -28.7578125 90.375 C-26.6572482 92.37440397 -24.53882614 94.27758381 -22.34350586 96.16748047 C-15.56252445 102.08638452 -9.21031744 108.45051387 -2.81518555 114.77978516 C-1.22009203 116.35309539 0.38124542 117.92009845 1.98852539 119.48095703 C4.32064146 121.74652241 6.63277891 124.03084684 8.94140625 126.3203125 C9.6651796 127.01625519 10.38895294 127.71219788 11.13465881 128.42922974 C11.78961838 129.08696381 12.44457794 129.74469788 13.11938477 130.42236328 C13.99253075 131.28004807 13.99253075 131.28004807 14.88331604 132.15505981 C16 134 16 134 15.80967712 136.56515503 C13.76709215 142.707576 6.84070222 147.7797124 1.8125 151.6875 C-1.95521688 153.44576788 -3.98415904 152.94956642 -8 152 C-10.59545898 150.06982422 -10.59545898 150.06982422 -12.99609375 147.5546875 C-13.88490234 146.64203125 -14.77371094 145.729375 -15.68945312 144.7890625 C-16.60614753 143.81834889 -17.52215995 142.84699081 -18.4375 141.875 C-20.24635248 139.99513618 -22.05751311 138.11749029 -23.87109375 136.2421875 C-24.66443115 135.4054248 -25.45776855 134.56866211 -26.27514648 133.70654297 C-28.38716404 131.6087178 -30.50839532 129.66349487 -32.75878906 127.72363281 C-37.36571213 123.73545751 -41.67791638 119.48390674 -45.98828125 115.1796875 C-46.81329636 114.35800079 -47.63831146 113.53631409 -48.48832703 112.68972778 C-50.21821486 110.96487092 -51.94677888 109.23868545 -53.67407227 107.51123047 C-56.3170179 104.87048586 -58.96787906 102.237861 -61.61914062 99.60546875 C-63.30517649 97.9223647 -64.99074005 96.23878736 -66.67578125 94.5546875 C-67.46640457 93.77124969 -68.25702789 92.98781189 -69.0716095 92.18063354 C-69.80634995 91.44281647 -70.54109039 90.70499939 -71.2980957 89.94482422 C-71.94237015 89.30197479 -72.58664459 88.65912537 -73.2504425 87.99679565 C-76.33912132 84.47164118 -78.42902154 81.31891872 -78.4375 76.5625 C-78.45683594 75.84191406 -78.47617187 75.12132812 -78.49609375 74.37890625 C-77.25680386 68.43616969 -72.33293357 64.04253025 -68.16162109 59.90283203 C-67.58878891 59.32649521 -67.01595673 58.75015839 -66.42576599 58.15635681 C-64.54662799 56.26847431 -62.66033918 54.38793295 -60.7734375 52.5078125 C-59.46085855 51.19388555 -58.14857655 49.87966189 -56.83657837 48.56515503 C-54.09448596 45.82012188 -51.34882777 43.07871985 -48.60058594 40.33984375 C-45.07177026 36.82246703 -41.55206918 33.29612734 -38.03494835 29.76706123 C-35.33118616 27.0560905 -32.62270162 24.34987842 -29.9127388 21.64510727 C-28.61225029 20.34595571 -27.3132535 19.04530916 -26.01575851 17.74316788 C-24.20848446 15.93084028 -22.3949688 14.12500472 -20.57958984 12.32080078 C-20.041371 11.77853348 -19.50315216 11.23626617 -18.94862366 10.67756653 C-15.2285362 7 -15.2285362 7 -13 7 C-13 6.34 -13 5.68 -13 5 C-8.85831201 0.75729523 -6.13782462 -1.43215908 0 0 Z " fill="#fff" transform="translate(594,436)"/>
<path d="M0 0 C3.64451052 0.51533166 4.8982718 1.89399241 7.5546875 4.44140625 C8.04227539 4.90385742 8.52986328 5.36630859 9.03222656 5.84277344 C15.94948866 12.4743669 22.6732262 19.32186912 29.40576172 26.14086914 C34.11604414 30.90039107 38.84497906 35.55800897 43.98339844 39.85864258 C46.8642141 42.44051349 49.23652282 45.38602951 51.6796875 48.37890625 C48.6728695 47.03891127 46.68206141 45.58045334 44.4296875 43.19140625 C42.16859727 40.80159059 39.81338537 38.63030242 37.30859375 36.50390625 C30.82771638 30.87861248 24.89781731 24.66431896 18.8671875 18.56640625 C16.44690188 16.11950668 14.02329944 13.67596228 11.59765625 11.234375 C11.0476445 10.67606491 10.49763275 10.11775482 9.93095398 9.54252625 C5.2303041 4.81169769 2.33112968 3.1318997 -4.3203125 2.37890625 C-2.3203125 0.37890625 -2.3203125 0.37890625 0 0 Z " fill="#fff" transform="translate(745.3203125,432.62109375)"/>
<path d="M0 0 C0.66 0 1.32 0 2 0 C2 4.62 2 9.24 2 14 C-1 11 -1 11 -1.328125 9.0625 C-1.30234375 8.381875 -1.2765625 7.70125 -1.25 7 C-1.23453125 6.319375 -1.2190625 5.63875 -1.203125 4.9375 C-1 3 -1 3 0 0 Z " fill="#fff" transform="translate(140,581)"/>
<path d="M0 0 C2 3 2 3 1.625 6.1875 C1.41875 7.115625 1.2125 8.04375 1 9 C0.34 9 -0.32 9 -1 9 C-0.67 6.03 -0.34 3.06 0 0 Z " fill="#fff" transform="translate(709,397)"/>
</svg>
